<svg width="16" height="16" viewBox="0 0 16 16" fill="none" xmlns="http://www.w3.org/2000/svg">
<g clip-path="url(#clip0_1_14)">
<path d="M8 0.00267029C5.87827 0.00267029 3.84344 0.845525 2.34315 2.34582C0.842855 3.84611 0 5.88094 0 8.00267C0 10.1244 0.842855 12.1592 2.34315 13.6595C3.84344 15.1598 5.87827 16.0027 8 16.0027C10.1217 16.0027 12.1566 15.1598 13.6569 13.6595C15.1571 12.1592 16 10.1244 16 8.00267C16 5.88094 15.1571 3.84611 13.6569 2.34582C12.1566 0.845525 10.1217 0.00267029 8 0.00267029ZM5.8784 11.8336H4.28587V6.7136H5.8784V11.8336ZM5.0816 6.01494C4.84066 6.00914 4.61155 5.90937 4.44319 5.73691C4.27483 5.56446 4.18059 5.33301 4.18059 5.092C4.18059 4.851 4.27483 4.61955 4.44319 4.44709C4.61155 4.27464 4.84066 4.17486 5.0816 4.16907C5.32254 4.17486 5.55165 4.27464 5.72001 4.44709C5.88837 4.61955 5.98261 4.851 5.98261 5.092C5.98261 5.33301 5.88837 5.56446 5.72001 5.73691C5.55165 5.90937 5.32254 6.00914 5.0816 6.01494ZM11.84 11.8363H10.2491V9.34614C10.2491 8.752 10.2373 7.98774 9.42187 7.98774C8.5936 7.98774 8.4672 8.63467 8.4672 9.30294V11.8363H6.87627V6.71627H8.40267V7.416H8.42667C8.57927 7.15477 8.79991 6.93986 9.06507 6.79418C9.33022 6.6485 9.62994 6.57752 9.93227 6.5888C11.5435 6.5888 11.8411 7.64907 11.8411 9.0288L11.84 11.8363Z" fill="#99CC33"/>
</g>
<defs>
<clipPath id="clip0_1_14">
<rect width="16" height="16" fill="white"/>
</clipPath>
</defs>
</svg>
